<svg id="svg" fill="#000000" stroke="#000000" width="200px" height="200px" version="1.1" viewBox="144 144 512 512" xmlns="http://www.w3.org/2000/svg">
    <g id="IconSvg_bgCarrier" stroke-width="0"></g>
    <g id="IconSvg_tracerCarrier" stroke-linecap="round" stroke-linejoin="round" stroke="#CCCCCC"></g>
     <g id="IconSvg_iconCarrier">
      <g xmlns="http://www.w3.org/2000/svg">
  <path d="m535.88 203.51h-70.191c-3.9141-5.0391-11-10.078-19.156-10.078l-1.1875 0.003906v-5.6016c0-8.8398-6.2305-14.551-15.875-14.551h-64.969c-9.3164 0-14.879 5.4414-14.879 14.551v5.6016h-0.17969c-8.918 0-16.066 5.0391-19.738 10.078l-69.617-0.003906c-13.539 0-26.34 11.52-26.34 25.055v371.21c0 13.531 12.801 26.938 26.34 26.938h275.79c13.539 0 25.34-13.406 25.34-26.945v-371.21c0.003906-13.527-11.805-25.047-25.34-25.047zm-206.41 40.461c2.2539 4.4688 6.5039 4.8828 8.2461 4.8828h122.27s4.4141 0.14453 6.7578-3.125c1.5625-2.1797 1.543-6.9531 1.543-6.9531l57.664 0.003906v347.63l-256.94-0.003906v-347.62h59.273s0.58594 4.0039 1.1836 5.1914zm19.973-40.461h5.2188c1.582 0 5.1445-0.84766 5.1289-4.7188l-0.089844-10.957c0-3.1562 0.66797-4.4766 4.8008-4.4766h64.973c4.7266 0 5.7969 2.8477 5.7969 5.3359v9.7773c0 2.7812 2.2539 5.0391 5.0391 5.0391h6.2266c5.4766 0 10.098 3.2305 11.684 8.0977l-0.03125 27.172h-120.44l-0.03125-28.238c2.1289-6.3281 8.8633-7.0312 11.727-7.0312zm201.7 396.26c0 7.9805-7.2852 16.867-15.266 16.867h-275.79c-7.9805 0-16.266-8.8867-16.266-16.867v-371.21c0-7.9766 8.2852-14.973 16.266-14.973h67.562l0.015625 15.113h-68.727v367.78h277.09v-367.78h-67.746l0.011719-15.113h67.582c7.9805 0 15.266 6.9961 15.266 14.977z"></path>
  <path d="m397.45 217.17c7.9922 0 14.496-6.5039 14.496-14.5 0-7.9922-6.5039-14.496-14.496-14.496-7.9961 0-14.5 6.5039-14.5 14.496 0 7.9922 6.5039 14.5 14.5 14.5zm0-18.922c2.4336 0 4.418 1.9844 4.418 4.418 0 2.4336-1.9844 4.4219-4.418 4.4219-2.4375 0-4.4219-1.9844-4.4219-4.4219s1.9844-4.418 4.4219-4.418z"></path>
  <path d="m299.24 284.12h105.8c2.7852 0 5.0391-2.2578 5.0391-5.0391s-2.2539-5.0391-5.0391-5.0391l-105.8 0.003906c-2.7852 0-5.0391 2.2578-5.0391 5.0391s2.25 5.0352 5.0391 5.0352z"></path>
  <path d="m430.23 284.12h65.496c2.7852 0 5.0391-2.2578 5.0391-5.0391s-2.2539-5.0391-5.0391-5.0391l-65.496 0.003906c-2.7852 0-5.0391 2.2578-5.0391 5.0391s2.2539 5.0352 5.0391 5.0352z"></path>
  <path d="m495.72 556.18h-40.305c-2.7852 0-5.0391 2.2539-5.0391 5.0391s2.2539 5.0391 5.0391 5.0391h40.305c2.7852 0 5.0391-2.2539 5.0391-5.0391 0-2.7891-2.2539-5.0391-5.0391-5.0391z"></path>
  <path d="m495.72 324.43h-136.03c-2.7852 0-5.0391 2.2578-5.0391 5.0391s2.2539 5.0391 5.0391 5.0391h136.03c2.7852 0 5.0391-2.2578 5.0391-5.0391s-2.2539-5.0391-5.0391-5.0391z"></path>
  <path d="m495.72 344.58h-136.03c-2.7852 0-5.0391 2.2578-5.0391 5.0391s2.2539 5.0391 5.0391 5.0391h136.03c2.7852 0 5.0391-2.2578 5.0391-5.0391s-2.2539-5.0391-5.0391-5.0391z"></path>
  <path d="m294.2 364.73h45.344v-45.344h-45.344zm10.074-35.266h25.191v25.191h-25.191z"></path>
  <path d="m495.72 410.07h-136.03c-2.7852 0-5.0391 2.2539-5.0391 5.0391 0 2.7852 2.2539 5.0391 5.0391 5.0391h136.03c2.7852 0 5.0391-2.2539 5.0391-5.0391 0-2.7852-2.2539-5.0391-5.0391-5.0391z"></path>
  <path d="m359.7 440.3h45.344c2.7852 0 5.0391-2.2539 5.0391-5.0391s-2.2539-5.0391-5.0391-5.0391h-45.344c-2.7852 0-5.0391 2.2539-5.0391 5.0391s2.25 5.0391 5.0391 5.0391z"></path>
  <path d="m294.2 450.38h45.344v-45.344h-45.344zm10.074-35.266h25.191v25.191h-25.191z"></path>
  <path d="m495.72 490.68h-136.03c-2.7852 0-5.0391 2.2539-5.0391 5.0391s2.2539 5.0391 5.0391 5.0391h136.03c2.7852 0 5.0391-2.2539 5.0391-5.0391s-2.2539-5.0391-5.0391-5.0391z"></path>
  <path d="m470.53 515.88c0-2.7852-2.2539-5.0391-5.0391-5.0391h-105.8c-2.7852 0-5.0391 2.2539-5.0391 5.0391s2.2539 5.0391 5.0391 5.0391h105.8c2.7852 0 5.0352-2.2539 5.0352-5.0391z"></path>
  <path d="m294.2 530.99h45.344v-45.344h-45.344zm10.074-35.266h25.191v25.191h-25.191z"></path>
 </g>

      </g>
      </svg>